<?xml version="1.0" standalone="no"?>
<!DOCTYPE svg PUBLIC "-//W3C//DTD SVG 20010904//EN"
 "http://www.w3.org/TR/2001/REC-SVG-20010904/DTD/svg10.dtd">
<svg version="1.0" xmlns="http://www.w3.org/2000/svg"
 width="512.000000pt" height="512.000000pt" viewBox="0 0 512.000000 512.000000"
 preserveAspectRatio="xMidYMid meet">
<metadata>
Created by potrace 1.14, written by Peter Selinger 2001-2017
</metadata>
<g transform="translate(0.000000,512.000000) scale(0.100000,-0.100000)"
fill="#000000" stroke="none">
<path d="M2428 4905 c-2 -2 -39 -6 -83 -9 -101 -9 -137 -13 -201 -26 -28 -6
-61 -13 -75 -15 -51 -10 -66 -13 -124 -30 -82 -23 -233 -73 -270 -90 -297
-135 -468 -241 -665 -414 -75 -66 -98 -89 -195 -193 -155 -166 -327 -437 -420
-662 -46 -112 -98 -270 -111 -336 -3 -14 -10 -43 -16 -65 -5 -22 -11 -49 -13
-60 -11 -81 -18 -121 -20 -125 -7 -12 -19 -210 -19 -320 -1 -464 126 -892 378
-1278 290 -446 718 -778 1219 -946 98 -33 235 -69 307 -81 19 -3 46 -8 60 -10
182 -37 508 -39 735 -5 95 14 115 18 153 29 18 5 35 10 37 10 49 5 252 71 363
118 442 188 802 490 1065 893 107 165 228 426 273 587 29 106 54 208 59 248 3
22 8 47 10 55 3 8 7 38 10 65 3 28 8 68 12 90 8 58 10 373 2 420 -4 22 -10 70
-13 106 -14 167 -92 451 -174 634 -64 142 -202 389 -232 415 -3 3 -17 21 -30
40 -13 19 -27 37 -30 40 -3 3 -30 37 -61 75 -69 85 -153 171 -257 262 -366
321 -832 523 -1317 569 -59 6 -353 13 -357 9z"/>
</g>
</svg>
